<svg width="257" height="36" viewBox="0 0 257 36" fill="none" xmlns="http://www.w3.org/2000/svg">
<path d="M26.1328 14.7734L25.1719 20.2578H7.85156L8.8125 14.7734H26.1328ZM13.2891 0.875L7.35938 35H0.492188L6.39844 0.875H13.2891ZM33.3984 0.875L27.4688 35H20.6484L26.5547 0.875H33.3984ZM48.9609 17.7031L48.0234 23H35.1562L36.0703 17.7031H48.9609ZM67.125 22.8594L58.2891 22.8359L59.25 17.3516L67.3594 17.375C68.5156 17.375 69.5781 17.1719 70.5469 16.7656C71.5156 16.3438 72.3125 15.7344 72.9375 14.9375C73.5625 14.1406 73.9609 13.1406 74.1328 11.9375C74.2891 10.9219 74.2344 10.0078 73.9688 9.19531C73.7031 8.38281 73.2344 7.72656 72.5625 7.22656C71.8906 6.72656 71.0234 6.45312 69.9609 6.40625L63.5625 6.38281L58.5938 35H51.7266L57.6328 0.875L70.1719 0.898438C72.3438 0.945312 74.2812 1.41406 75.9844 2.30469C77.6875 3.17969 79 4.42969 79.9219 6.05469C80.8594 7.66406 81.2344 9.60938 81.0469 11.8906C80.8438 14.375 80.0703 16.4297 78.7266 18.0547C77.3828 19.6797 75.6875 20.8906 73.6406 21.6875C71.6094 22.4688 69.4375 22.8594 67.125 22.8594ZM87.6797 0.875L99.7031 0.898438C101.781 0.929687 103.664 1.3125 105.352 2.04688C107.055 2.78125 108.375 3.88281 109.312 5.35156C110.266 6.82031 110.664 8.6875 110.508 10.9531C110.352 12.8125 109.898 14.3828 109.148 15.6641C108.414 16.9453 107.422 18.0312 106.172 18.9219C104.938 19.8125 103.516 20.5781 101.906 21.2188L99.5156 22.3672H88.4062L89.3438 16.8828L96.9844 16.9297C98.125 16.9141 99.1641 16.6953 100.102 16.2734C101.039 15.8516 101.812 15.2422 102.422 14.4453C103.047 13.6328 103.438 12.6484 103.594 11.4922C103.734 10.4766 103.664 9.59375 103.383 8.84375C103.117 8.09375 102.656 7.50781 102 7.08594C101.344 6.66406 100.508 6.4375 99.4922 6.40625L93.6094 6.38281L88.6406 35H81.7734L87.6797 0.875ZM100.453 35L95.5312 19.7891L102.445 19.7422L107.766 34.625V35H100.453ZM141.914 17.0234L141.727 18.6641C141.414 20.8516 140.828 22.9609 139.969 24.9922C139.109 27.0234 137.984 28.8359 136.594 30.4297C135.203 32.0078 133.547 33.2578 131.625 34.1797C129.719 35.0859 127.555 35.5156 125.133 35.4688C122.82 35.4219 120.859 34.9219 119.25 33.9688C117.656 33 116.391 31.7188 115.453 30.125C114.531 28.5312 113.914 26.7578 113.602 24.8047C113.289 22.8359 113.258 20.8203 113.508 18.7578L113.695 17.1406C114.008 14.9531 114.594 12.8516 115.453 10.8359C116.328 8.82031 117.461 7.02344 118.852 5.44531C120.258 3.85156 121.914 2.60156 123.82 1.69531C125.742 0.789062 127.898 0.359375 130.289 0.40625C132.602 0.4375 134.555 0.9375 136.148 1.90625C137.758 2.85938 139.023 4.13281 139.945 5.72656C140.883 7.30469 141.508 9.07812 141.82 11.0469C142.133 13 142.164 14.9922 141.914 17.0234ZM134.766 18.7578L135 17.0703C135.125 16.0078 135.188 14.8594 135.188 13.625C135.203 12.375 135.062 11.1797 134.766 10.0391C134.469 8.88281 133.938 7.9375 133.172 7.20312C132.422 6.45312 131.336 6.04688 129.914 5.98438C128.383 5.9375 127.07 6.24219 125.977 6.89844C124.898 7.55469 123.992 8.44531 123.258 9.57031C122.539 10.6797 121.969 11.8984 121.547 13.2266C121.141 14.5391 120.844 15.8281 120.656 17.0938L120.445 18.7812C120.305 19.8281 120.227 20.9844 120.211 22.25C120.211 23.5 120.359 24.7031 120.656 25.8594C120.953 27 121.484 27.9453 122.25 28.6953C123.016 29.4453 124.109 29.8516 125.531 29.9141C127.047 29.9609 128.344 29.6484 129.422 28.9766C130.516 28.3047 131.43 27.4141 132.164 26.3047C132.898 25.1797 133.477 23.9609 133.898 22.6484C134.32 21.3203 134.609 20.0234 134.766 18.7578ZM159.023 24.5469L163.055 0.875H169.898L165.891 24.5234C165.594 26.7109 164.867 28.6406 163.711 30.3125C162.57 31.9688 161.102 33.2578 159.305 34.1797C157.508 35.0859 155.5 35.5234 153.281 35.4922C151.109 35.4453 149.273 35 147.773 34.1562C146.273 33.2969 145.148 32.0859 144.398 30.5234C143.648 28.9609 143.32 27.1016 143.414 24.9453L150.305 24.9688C150.242 25.8438 150.289 26.6641 150.445 27.4297C150.602 28.1797 150.93 28.7969 151.43 29.2812C151.945 29.75 152.711 29.9922 153.727 30.0078C154.789 30.0391 155.688 29.7969 156.422 29.2812C157.156 28.75 157.734 28.0625 158.156 27.2188C158.594 26.375 158.883 25.4844 159.023 24.5469ZM192.984 29.5156L192.023 35H174.375L175.312 29.5156H192.984ZM182.555 0.875L176.625 35H169.758L175.664 0.875H182.555ZM193.242 14.7734L192.305 20.1172H176.953L177.891 14.7734H193.242ZM197.906 0.875L196.945 6.38281H179.32L180.305 0.875H197.906ZM216.984 23.7031L223.688 23.6094C223.391 26.125 222.539 28.2812 221.133 30.0781C219.742 31.8594 217.992 33.2188 215.883 34.1562C213.773 35.0781 211.484 35.5156 209.016 35.4688C206.734 35.4219 204.812 34.9375 203.25 34.0156C201.688 33.0781 200.461 31.8281 199.57 30.2656C198.68 28.7031 198.094 26.9609 197.812 25.0391C197.531 23.1172 197.516 21.1484 197.766 19.1328L198.094 16.7656C198.406 14.6406 198.977 12.5859 199.805 10.6016C200.648 8.61719 201.75 6.85156 203.109 5.30469C204.469 3.75781 206.078 2.53906 207.938 1.64844C209.797 0.757812 211.906 0.335938 214.266 0.382812C216.734 0.429688 218.82 0.960938 220.523 1.97656C222.242 2.97656 223.562 4.375 224.484 6.17188C225.422 7.95312 225.945 10.0391 226.055 12.4297L219.234 12.4062C219.25 11.1406 219.094 10.0312 218.766 9.07812C218.453 8.10938 217.906 7.35938 217.125 6.82812C216.344 6.28125 215.266 5.98438 213.891 5.9375C212.391 5.89062 211.117 6.1875 210.07 6.82812C209.023 7.46875 208.156 8.32812 207.469 9.40625C206.797 10.4844 206.266 11.6641 205.875 12.9453C205.5 14.2266 205.219 15.4844 205.031 16.7188L204.703 19.1562C204.578 20.1719 204.492 21.2969 204.445 22.5312C204.398 23.75 204.5 24.9141 204.75 26.0234C205 27.1328 205.484 28.0547 206.203 28.7891C206.922 29.5078 207.992 29.8906 209.414 29.9375C210.82 29.9844 212.031 29.7656 213.047 29.2812C214.078 28.7969 214.914 28.0781 215.555 27.125C216.211 26.1719 216.688 25.0312 216.984 23.7031ZM246.492 0.875L240.586 35H233.719L239.648 0.875H246.492ZM256.664 0.875L255.703 6.38281H228.68L229.641 0.875H256.664Z" fill="#F92672"/>
</svg>
